# xmcd CD database file
#
# Track frame offsets:
#	150
#	19173
#	34834
#	51636
#	70494
#	84169
#	102269
#	119921
#	129340
#	139593
#	159226
#	176014
#	189747
#	203240
#	219582
#	232848
#	247226
#	267483
#
# Disc length: 3836 seconds
#
# Revision: 0
# Processed by: cddbd v1.5.2PL0 Copyright (c) Steve Scherf et al.
# Submitted via: CDex 1.50
#
DISCID=0f0efa12
DTITLE=Léo Latino - Et si on dansait
DYEAR=2004
DGENRE=Merengue
TTITLE0=Salomé
TTITLE1=Lambada
TTITLE2=Femme Libérée
TTITLE3=Fruit de la Passion
TTITLE4=Born to be Alive
TTITLE5=On va s' aimer
TTITLE6=Sex Bomb
TTITLE7=Don't be Cruel
TTITLE8=Return
TTITLE9=Esclavo y amo
TTITLE10=Emmenez-moi
TTITLE11=Viva España
TTITLE12=El Bodeguero
TTITLE13=L'italiano
TTITLE14=Stand by me
TTITLE15=Una Lacrima Sul Viso
TTITLE16=Love me , Please Love me
TTITLE17=Tu ne m'as pas laissé le Temps
EXTD=YEAR: 2004
EXTT0=
EXTT1=
EXTT2=
EXTT3=
EXTT4=
EXTT5=
EXTT6=
EXTT7=
EXTT8=
EXTT9=
EXTT10=
EXTT11=
EXTT12=
EXTT13=
EXTT14=
EXTT15=
EXTT16=
EXTT17=
PLAYORDER=
